<?xml version="1.0" encoding="UTF-8"?>
<svg xmlns="http://www.w3.org/2000/svg" width="100%" height="100%" viewBox="0 0 96 96">
<rect width="96" height="96" fill="#DCB35C"/>
<rect width="90" height="90" x="3" y="3" stroke="#000" stroke-width=".2" fill="none"/>
<path stroke="#000" stroke-width=".2" fill="none" d="m3,8h90m0,5h-90m0,5h90m0,5h-90m0,5h90m0,5h-90m0,5h90m0,5h-90m0,5h90m0,5h-90m0,5h90m0,5h-90m0,5h90m0,5h-90m0,5h90m0,5h-90m0,5h90"/>
<path stroke="#000" stroke-width=".2" fill="none" d="m8,3v90m5,0v-90m5,0v90m5,0v-90m5,0v90m5,0v-90m5,0v90m5,0v-90m5,0v90m5,0v-90m5,0v90m5,0v-90m5,0v90m5,0v-90m5,0v90m5,0v-90m5,0v90"/>
<path stroke="#000" stroke-width=".8" stroke-linecap="round" d="m18,78l0,0m30,0l0,0m30,0l0,0m0-30l0,0m-30,0l0,0m-30,0l0,0m0-30l0,0m30,0l0,0m30,0l0,0"/>

  <!-- Place markers at the intersections -->
  <circle cx="3" cy="3" r="1" fill="#000"/>
  <circle cx="8" cy="8" r="1" fill="#000"/>
  <circle cx="13" cy="13" r="1" fill="#000"/>
  <circle cx="13" cy="13" r="1" fill="#000"/>
  <circle cx="18" cy="18" r="1" fill="#000"/> 
  <circle cx="23" cy="23" r="1" fill="#000"/> 
  <circle cx="28" cy="28" r="1" fill="#000"/> 
  <circle cx="33" cy="33" r="1" fill="#000"/> 
  <circle cx="38" cy="38" r="1" fill="#000"/> 
  <circle cx="43" cy="43" r="1" fill="#000"/> 
  <circle cx="48" cy="48" r="1" fill="#000"/> 
  <circle cx="53" cy="53" r="1" fill="#000"/> 
  <circle cx="58" cy="58" r="1" fill="#000"/> 
  <circle cx="63" cy="63" r="1" fill="#000"/> 
  <circle cx="68" cy="68" r="1" fill="#000"/> 
  <circle cx="73" cy="73" r="1" fill="#000"/> 
  <circle cx="78" cy="78" r="1" fill="#000"/> 
  <circle cx="83" cy="83" r="1" fill="#000"/> 
  <circle cx="88" cy="88" r="1" fill="#000"/> 
  <circle cx="93" cy="93" r="1" fill="#000"/> 


</svg>
